<svg width="22" height="20" viewBox="0 0 22 20" fill="none" xmlns="http://www.w3.org/2000/svg">
<path d="M7.87089 13.8601C8.22704 13.9998 8.57643 13.6579 8.45836 13.2942C7.6481 10.7973 4.71441 9.86585 1.98721 12.0811C0.552669 13.2465 0.0135972 13.4941 0 13.5003C0.94572 14.4459 2.02614 17.6188 4.38403 17.9698C6.98142 18.4407 9.28027 15.8853 7.39947 14.7159C6.16255 13.9469 4.70622 13.5003 3.14516 13.5003C4.78172 13.1314 6.41549 13.2896 7.87089 13.8601Z" fill="#36C942"/>
<path d="M19.6324 12.081C14.9248 8.2571 11.9225 14.2875 13.7887 13.6897C15.1141 13.2652 16.5631 13.1727 18.0166 13.5003C15.554 13.5003 13.2839 14.6288 11.7704 16.4658C11.8947 13.579 12.0827 11.772 12.3007 10.4278C13.5587 10.3846 15.2352 9.36878 16.156 7.59127C17.7433 4.75056 17.0072 1.8379 16.7703 0C15.53 1.20778 10.112 -0.20742 7.96415 3.4731C7.01539 5.09893 7.29113 7.07736 8.28921 8.52516C8.60516 8.9835 9.3606 8.76358 9.38214 8.20736C9.47588 5.78774 10.6801 3.95964 12.9251 2.94712C11.9177 4.25236 11.2563 5.71368 10.9146 7.22406C10.3834 9.57687 9.82865 11.1203 9.62494 18.6194C9.60425 19.3799 10.2203 20.0094 10.9811 19.9999C11.5318 19.993 12.0036 19.6435 12.2154 19.1351C12.5375 18.3618 13.0618 17.5615 13.915 16.8283C14.7257 17.7244 15.9594 18.2013 17.236 17.9698C19.5838 17.6204 20.6795 14.4405 21.6199 13.5002C21.6061 13.4941 21.067 13.2465 19.6324 12.081Z" fill="#36C942"/>
</svg>
