<svg width="19" height="20" viewBox="0 0 19 20" fill="none" xmlns="http://www.w3.org/2000/svg">
<path d="M12.6755 2.19156V0H11.5019V2.52109C10.7448 2.85296 10.0851 3.39655 9.61295 4.10483L9.35014 4.49905L9.08733 4.10483C8.61518 3.39659 7.9555 2.85296 7.19843 2.52109V0H6.02476V2.19156C5.8316 2.1655 5.63574 2.15171 5.43793 2.15171V4.73378C5.43793 6.03018 6.48886 7.08111 7.78526 7.08111H10.915C12.2114 7.08111 13.2624 6.03018 13.2624 4.73378V2.15171C13.0646 2.15171 12.8687 2.1655 12.6755 2.19156Z" fill="#FF4A2F"/>
<path d="M12.0887 8.25488H6.61162L0 18.5831V18.6223C6.09807 20.4594 12.6023 20.4594 18.7004 18.6223V18.5831L12.0887 8.25488Z" fill="#FF4A2F"/>
</svg>
