<svg width="20" height="20" viewBox="0 0 20 20" fill="none" xmlns="http://www.w3.org/2000/svg">
<path d="M19.4738 17.0049L11.6314 9.16249L2.4689 0H1.75285L1.60664 0.371523C1.22074 1.35215 1.05586 2.35511 1.12988 3.27187C1.21425 4.31687 1.61125 5.22159 2.278 5.88835L9.43073 13.0411L10.3742 12.0976L16.9868 19.4919C17.6447 20.1497 18.7769 20.1888 19.4738 19.4919C20.1595 18.8062 20.1595 17.6906 19.4738 17.0049Z" fill="#0052A3"/>
<path d="M6.1162 11.3845L0.514218 16.9865C-0.171406 17.6721 -0.171406 18.7878 0.514218 19.4734C1.16555 20.1247 2.2923 20.1822 3.00113 19.4734L8.60315 13.8714L6.1162 11.3845Z" fill="#0052A3"/>
<path d="M19.1445 3.32997L15.9667 6.5077L15.1377 5.67872L18.3155 2.50095L17.4865 1.67197L14.3088 4.8497L13.4798 4.02071L16.6576 0.842982L15.8286 0.0140381L11.6837 4.15895C11.1766 4.66602 10.8739 5.3393 10.831 6.05485C10.8202 6.23614 10.7791 6.41446 10.711 6.58407L13.4035 9.2766C13.5731 9.20836 13.7515 9.16731 13.9327 9.15649C14.6483 9.11379 15.3215 8.81094 15.8286 8.30387L19.9735 4.15899L19.1445 3.32997Z" fill="#0052A3"/>
</svg>
