<svg width="19" height="20" viewBox="0 0 19 20" fill="none" xmlns="http://www.w3.org/2000/svg">
<path d="M9.40943 4.89824C10.6606 4.69541 11.5105 3.51669 11.3077 2.26549C11.1048 1.01429 9.92612 0.164414 8.67492 0.367243C7.42372 0.570072 6.57385 1.7488 6.77668 3C6.97951 4.2512 8.15823 5.10107 9.40943 4.89824Z" fill="#008ED3"/>
<path d="M17.3625 14.423L11.9779 13.4309V7.87328H12.0167C12.2488 7.87328 12.4611 8.0646 12.4634 8.27524V11.5869C12.4634 12.4788 13.4625 12.9993 14.193 12.5032L17.7435 10.0927C18.2495 9.74906 18.3812 9.0603 18.0377 8.55429C17.6941 8.04828 17.0054 7.91651 16.4993 8.26014L14.6785 9.4964V8.2717C14.6785 8.26986 14.6785 8.26799 14.6785 8.26616C14.6713 6.82822 13.4772 5.65839 12.0167 5.65839C11.4261 5.65839 6.76752 5.65839 6.07104 5.65839C4.60821 5.65839 3.4122 6.82822 3.40495 8.26616V8.2717V9.52782L1.71819 8.41327C1.20783 8.07607 0.520858 8.21641 0.183616 8.72677C-0.153582 9.23708 -0.0132462 9.92414 0.497113 10.2613L3.90192 12.5111C4.63336 12.9943 5.61997 12.4728 5.61997 11.587V8.27536C5.62232 8.06473 5.8367 7.87341 6.07104 7.87341H6.09789V13.3957C5.61575 13.5179 1.88146 14.4647 1.43428 14.578C0.862234 14.7231 0.454313 15.228 0.432743 15.8177C0.411215 16.4075 0.781153 16.9409 1.34109 17.1273L9.7653 19.9317C10.4615 20.1634 11.2141 19.7871 11.446 19.0904C11.6779 18.394 11.3013 17.6415 10.6048 17.4097L6.48744 16.039C6.50223 16.0341 9.60859 15.7392 9.60859 15.7392L8.57735 16.0508L10.8098 16.794C11.4074 16.993 11.8463 17.4498 12.0451 17.9995L17.3581 17.0379C17.9897 16.9236 18.4493 16.3742 18.4504 15.7324C18.4516 15.0904 17.9938 14.5395 17.3625 14.423Z" fill="#008ED3"/>
</svg>
