<svg width="161" height="48" viewBox="0 0 161 48" fill="none" xmlns="http://www.w3.org/2000/svg">
<g clip-path="url(#clip0)">
<path d="M0 43.5153C0 45.9919 2.00822 48.0001 4.48483 48.0001H18.2674L0 28.2991V43.5153Z" fill="#0066B2"/>
<path d="M39.1365 8.15241H36.6504V7.0184C36.6504 3.82307 34.0506 1.2251 30.8553 1.2251H21.9766C18.7813 1.2251 16.1814 3.82307 16.1814 7.0184V8.15241H12.6068V6.79273H6.66372V8.15241H4.48483C2.00822 8.15241 0 10.1606 0 12.6372V28.2972L14.2566 34.5342C14.2566 34.5361 24.292 18.9179 39.1365 8.15241ZM18.7984 7.0184C18.7984 5.26618 20.2244 3.84204 21.9766 3.84204H30.8553C32.6075 3.84204 34.0335 5.26618 34.0335 7.0184V8.15241H18.7984V7.0184Z" fill="#008ED3"/>
<path d="M61.2023 13.8699H55.5645V18.8041H61.2023V13.8699Z" fill="#00BFF2"/>
<path d="M67.2743 20.8823H61.6365V25.8166H67.2743V20.8823Z" fill="#008ED3"/>
<path d="M61.2023 28.2991H55.5645V33.2333H61.2023V28.2991Z" fill="#00BFF2"/>
<path d="M66.8401 37.0032H61.2023V41.9374H66.8401V37.0032Z" fill="#0066B2"/>
<path d="M49.2175 37.0032V32.0689H52.8319V12.6372C52.8319 10.1606 50.8237 8.15234 48.347 8.15234H47.8483L54.8572 0C54.8572 0 48.6884 2.33628 39.6429 14.3458C32.9147 23.2756 29.1144 27.8647 18.2693 48H48.3489C50.8256 48 52.8338 45.9918 52.8338 43.5152V37.0032H49.2175ZM39.1365 27.1384H44.7743V32.0727H39.1365V27.1384ZM48.0341 43.7901H42.3963V38.8559H48.0341V43.7901ZM48.7756 23.3496H43.1378V18.4172H48.7756V23.3496Z" fill="#00BFF2"/>
<path d="M74.3799 19.5535H80.215L83.4349 35.8487L87.421 19.5535H93.4154L97.2422 35.8487L100.494 19.5535H106.362L100.527 41.9378H93.9255L90.3547 27.2052L86.6549 41.9378H80.0538L74.3799 19.5535Z" fill="#111111"/>
<path d="M117.203 42.1936C111.973 42.1936 108.019 38.6853 108.019 33.0418C108.019 27.3984 112.068 23.8901 117.266 23.8901C122.496 23.8901 126.512 27.3984 126.512 33.0418C126.514 38.6853 122.433 42.1936 117.203 42.1936ZM117.203 37.4736C119.149 37.4736 120.965 36.0381 120.965 33.0418C120.965 30.0134 119.179 28.6101 117.266 28.6101C115.288 28.6101 113.566 30.0134 113.566 33.0418C113.568 36.0381 115.227 37.4736 117.203 37.4736Z" fill="#111111"/>
<path d="M134.867 41.9375H129.415V24.1442H134.867V27.11C136.111 25.2289 138.057 23.9526 140.448 23.9526V29.7251H138.95C136.367 29.7251 134.869 30.6183 134.869 33.6789V41.9375H134.867Z" fill="#111111"/>
<path d="M143.061 18.3416H148.513V31.3826L153.903 24.1443H160.631L153.233 33.0723L160.695 41.9376H153.935L148.513 34.4756V41.9376H143.061V18.3416Z" fill="#111111"/>
</g>
<defs>
<clipPath id="clip0">
<rect width="160.695" height="48" fill="white"/>
</clipPath>
</defs>
</svg>
