<svg width="101" height="30" viewBox="0 0 101 30" fill="none" xmlns="http://www.w3.org/2000/svg">
<g clip-path="url(#clip0)">
<path d="M0 27.197C0 28.7449 1.25514 30 2.80302 30H11.4171L0 17.6869V27.197Z" fill="#0066B2"/>
<path d="M24.4603 5.09525H22.9065V4.3865C22.9065 2.38942 21.2816 0.765686 19.2845 0.765686H13.7354C11.7383 0.765686 10.1134 2.38942 10.1134 4.3865V5.09525H7.87927V4.24546H4.16482V5.09525H2.80302C1.25514 5.09525 0 6.35039 0 7.89827V17.6857L8.9104 21.5839C8.9104 21.5851 15.1825 11.8237 24.4603 5.09525ZM11.749 4.3865C11.749 3.29137 12.6403 2.40127 13.7354 2.40127H19.2845C20.3797 2.40127 21.2709 3.29137 21.2709 4.3865V5.09525H11.749V4.3865Z" fill="#008ED3"/>
<path d="M38.2514 8.6687H34.7278V11.7526H38.2514V8.6687Z" fill="#00BFF2"/>
<path d="M42.0465 13.0515H38.5228V16.1354H42.0465V13.0515Z" fill="#008ED3"/>
<path d="M38.2514 17.6869H34.7278V20.7708H38.2514V17.6869Z" fill="#00BFF2"/>
<path d="M41.775 23.127H38.2514V26.2109H41.775V23.127Z" fill="#0066B2"/>
<path d="M30.7609 23.127V20.0431H33.02V7.89823C33.02 6.35035 31.7648 5.09521 30.2169 5.09521H29.9052L34.2858 0C34.2858 0 30.4303 1.46018 24.7768 8.9661C20.5717 14.5473 18.1965 17.4155 11.4183 30H30.2181C31.766 30 33.0211 28.7449 33.0211 27.197V23.127H30.7609ZM24.4604 16.9615H27.984V20.0454H24.4604V16.9615ZM30.0214 27.3688H26.4977V24.2849H30.0214V27.3688ZM30.4848 14.5935H26.9612V11.5107H30.4848V14.5935Z" fill="#00BFF2"/>
<path d="M46.4874 12.2208H50.1343L52.1468 22.4053L54.6381 12.2208H58.3846L60.7763 22.4053L62.809 12.2208H66.476L62.8291 26.211H58.7034L56.4716 17.0031L54.1593 26.211H50.0336L46.4874 12.2208Z" fill="white"/>
<path d="M73.2518 26.371C69.983 26.371 67.5118 24.1783 67.5118 20.6512C67.5118 17.124 70.0423 14.9313 73.2909 14.9313C76.5597 14.9313 79.07 17.124 79.07 20.6512C79.0712 24.1783 76.5206 26.371 73.2518 26.371ZM73.2518 23.421C74.4678 23.421 75.6032 22.5238 75.6032 20.6512C75.6032 18.7584 74.4868 17.8813 73.2909 17.8813C72.0547 17.8813 70.9786 18.7584 70.9786 20.6512C70.9798 22.5238 72.0168 23.421 73.2518 23.421Z" fill="white"/>
<path d="M84.2921 26.2109H80.8846V15.0901H84.2921V16.9438C85.0696 15.768 86.2856 14.9704 87.7801 14.9704V18.5782H86.8438C85.2296 18.5782 84.2932 19.1364 84.2932 21.0493V26.2109H84.2921Z" fill="white"/>
<path d="M89.4133 11.4634H92.8208V19.6141L96.1891 15.0901H100.394L95.7707 20.6701L100.435 26.2109H96.2093L92.8208 21.5471V26.2109H89.4133V11.4634Z" fill="white"/>
</g>
<defs>
<clipPath id="clip0">
<rect width="100.435" height="30" fill="white"/>
</clipPath>
</defs>
</svg>
