<svg width="14" height="20" viewBox="0 0 14 20" fill="none" xmlns="http://www.w3.org/2000/svg">
<path d="M12.7319 12.7194C13.3535 11.6793 13.7658 10.3638 13.8458 9.06211C13.8966 8.22665 13.7104 7.34965 13.3073 6.52496C12.675 5.22946 11.5887 4.50171 10.5394 3.79857C9.75625 3.27391 9.01618 2.77848 8.49306 2.07072L8.3992 1.94456C8.08995 1.52914 7.74068 1.05833 7.68529 0.662905C7.62991 0.26287 7.2668 -0.0217704 6.86984 0.00130852C6.46673 0.0290033 6.15439 0.362879 6.15439 0.76753V14.4764C5.50972 14.0856 4.7158 13.8456 3.84649 13.8456C1.72631 13.8456 0 15.2257 0 16.9228C0 18.6199 1.72631 20 3.84649 20C5.96668 20 7.69299 18.6199 7.69299 16.9228V7.95586C8.84847 8.39744 10.7394 9.52215 11.2595 12.1485C11.1625 12.2916 11.0702 12.4455 10.9625 12.5686C10.6809 12.8871 10.7117 13.3733 11.0317 13.6533C11.3487 13.9364 11.8349 13.9025 12.1165 13.584C12.3226 13.3502 12.5057 13.0763 12.6811 12.7901C12.6996 12.7686 12.7166 12.7455 12.7319 12.7194Z" fill="#FF9F2F"/>
</svg>
