<svg width="13" height="20" viewBox="0 0 13 20" fill="none" xmlns="http://www.w3.org/2000/svg">
<path d="M10.0494 4.17989C8.52978 6.0962 9.87252 6.98339 8.75896 8.89209C9.41165 6.34208 5.64997 2.97079 7.87958 0C3.99832 2.17233 5.15174 6.51698 3.34065 9.78688C4.15776 8.30402 2.92712 5.15326 1.54451 4.18496C3.22357 6.62598 -0.179385 10.5549 0.00745384 14.0808C0.119557 19.1707 6.78844 22.1643 10.5152 18.1112C15.4204 12.7779 9.16254 9.16078 10.0494 4.17989ZM4.14032 15.7259V15.7133C4.14032 15.7031 4.14032 15.6955 4.14281 15.6854C4.14281 15.6778 4.1453 15.6727 4.1453 15.6651C4.14779 15.6473 4.15028 15.6321 4.15028 15.6144V15.6119C4.15527 15.5916 4.15527 15.5688 4.15776 15.551C4.16025 15.5434 4.16025 15.5409 4.16025 15.5383C4.40688 13.655 6.01119 10.9884 6.70125 9.23176C6.64395 11.4092 9.43158 14.1239 7.65039 16.2608C8.3255 15.7893 8.9184 15.2266 9.4266 14.5751C9.82768 20.5243 3.70935 20.5116 4.14032 15.7259Z" fill="white"/>
</svg>
